# xmcd
#
# Track frame offsets: 
#        150
#        38745
#        50034
#        74254
#        84901
#        111877
#        149571
#        170953
#
# Disc length: 2718 seconds
#
# Revision: 0
# Processed by: cddbd v1.5.2PL0 Copyright (c) Steve Scherf et al.
# Submitted via: ExactAudioCopyFreeDBPlugin 1.0
#
DISCID=740a9c08
DTITLE=Esteban Antonio - Gernika
DYEAR=2007
DGENRE=Easy Listening
TTITLE0=The Gathering Place of the Angels (Buleria)
TTITLE1=Aftermath... El Segunda Cosecha (Saeta)
TTITLE2=The Bell of Santa Maria... La Campana de Santa Maria (Rondena)
TTITLE3=Where the Great Eagles Fly (Danza Espanol no1)
TTITLE4=The Two Olive Branches (Danza Espanol no2)
TTITLE5=Poeme Poema (Rondena)
TTITLE6=Pursue Love
TTITLE7=Dakouron "He will wipe away every tear" (Revelation 21 v 4)
EXTD=
EXTT0=
EXTT1=
EXTT2=
EXTT3=
EXTT4=
EXTT5=
EXTT6=
EXTT7=
PLAYORDER=
